# xmcd
#
# Track frame offsets: 
#        150
#        18179
#        34120
#        52803
#        71357
#        86227
#        108880
#        124114
#        140528
#        157990
#        175551
#        192276
#        212216
#        227249
#        246792
#        262135
#        279462
#        306605
#        324845
#        344564
#
# Disc length: 4794 seconds
#
# Revision: 3
# Processed by: cddbd v1.5.2PL0 Copyright (c) Steve Scherf et al.
# Submitted via: ExactAudioCopy v1.0b1
#
DISCID=1e12b814
DTITLE=Various Artist - 100 Hits (90s)
DYEAR=2007
DGENRE=Compilation
TTITLE0=D-Ream - Things Can Only Better
TTITLE1=Mark Morrison - Return Of The Mack
TTITLE2=Simply Red - Stars
TTITLE3=Jimmy Nail - Ain't No Doubt
TTITLE4=Five - Keep On Movin'
TTITLE5=The Beloved - The Sun Rising
TTITLE6=Gloria Estefan - Hold Me, Thrill Me, Kiss Me
TTITLE7=Lou Bega - Mambo No.5 (A Little Bit Of.....)
TTITLE8=Backstreet Boys - Quit Playing Games (With My Heart)
TTITLE9=Hepburn - I Quit
TTITLE10=Craig McLachlan - Mona
TTITLE11=New Kids On The Block - Step By Step
TTITLE12=*NSYNC - I Want You Back
TTITLE13=Steps - One For Sorrow
TTITLE14=Gina G - (Ooh Ahh) Just A Little Bit
TTITLE15=Jimmy Somerville - Hurt So Good
TTITLE16=D-Ream - U R The Best Thing
TTITLE17=Rick Astley - Cry For Help
TTITLE18=A-Ha - Crying In The Rain
TTITLE19=Robson and Jerome - Unchained Melody
EXTD=
EXTT0=
EXTT1=
EXTT2=
EXTT3=
EXTT4=
EXTT5=
EXTT6=
EXTT7=
EXTT8=
EXTT9=
EXTT10=
EXTT11=
EXTT12=
EXTT13=
EXTT14=
EXTT15=
EXTT16=
EXTT17=
EXTT18=
EXTT19=
PLAYORDER=
